<?xml version="1.0" encoding="UTF-8"?>
<svg id="Layer_2" data-name="Layer 2" xmlns="http://www.w3.org/2000/svg" viewBox="0 0 186.09 245.49">
  <g id="Layer_1-2" data-name="Layer 1">
    <g>
      <path d="M57.99,173.67c-.12,13.1-1.45,18.27,8.06,27.67,5.98,4.28,11.91,6.99,19.54,8.81l8.86,35.34h91.64s0-117.86,0-117.86c0-5.08-3.69-8.4-8.53-8.45h-24c-4.84,0-8.32,3.43-8.34,8.28l-.15,38.55c-.01,3.97-5.52,7.6-9.41,7.6l-77.67.06Z"/>
      <g>
        <path d="M37.95,136.11c-8.27,0-14.28,5.29-16.27,12.45L.63,224.4c-2.54,9.15,2.94,17.93,11,20.35,8.85,2.67,18.23-2.09,20.8-11.29l17.86-64.15,62.57-.27c12.24-.05,21.18-8.01,24.36-19.63,4.91-28.31,2.3-57.21-9.59-83.43-4.62-10.18-14.82-16.59-25.28-17.14-7.35-.39-13.28,2.93-16.54,9.36-6.29,12.38-2.24,22.31.79,36.33l4.5-21.23c1.57-7.41,8.97-11.6,15.84-10.19,7.33,1.51,12.1,8.56,10.51,16.42l-10.62,52.58c-.22,1.07-1.86,3.51-2.89,3.98l-66,.02Z"/>
        <path d="M85.03,117.97c-14.26,1.32-43.05,3.01-52.88,15.17h71.37s11.07-54.27,11.07-54.27c1.34-6.57-3.18-12.28-9.06-13-6.85-.84-10.89,4.11-12.2,10.64l-8.3,41.46Z"/>
        <path d="M79.32.6c-14.28-3.1-27.19,6.22-29.99,19.64s5.92,26.68,19.43,29.61c13.15,2.85,26.33-5.37,29.62-18.28,3.47-13.6-4.47-27.81-19.06-30.98Z"/>
        <path d="M99.19,14.25c0-6.4,5.12-11.6,11.44-11.6,2.49,0,4.12.11,6.66,2.19s5.84,6.08,8.28,12.37c1.82,4.68,2.95,16.89,11,18.19,5.7.92,6.46-4.16,6.46-4.16,0,0,.65,6.32-3.34,9.18-8.06,5.78-17.41-.47-21.05-2.69-5.11-3.12-12.2-9.97-16.4-15.56l.03-.03c-1.9-2.07-3.07-4.84-3.07-7.89Z"/>
        <path d="M67.73,88.95c1.61-1.67,4.33-4.46,4.33-4.46,7.2-8.96,12.02-19.88,12.02-19.88,0,0,1.82,2.22,2.6,3,.28.28-.24,3.75-1.04,8.14,1.61.79,3.01,2.04,4.17,3.61l-3.21,15.15-2.89,12.43c-2.18,1.11-4.54,1.53-6.88,1.05-6.88-1.41-15.54-12.35-9.09-19.05Z"/>
      </g>
    </g>
  </g>
</svg>