<?xml version="1.0" encoding="UTF-8"?>
<svg id="Layer_2" data-name="Layer 2" xmlns="http://www.w3.org/2000/svg" viewBox="0 0 127.46 251.57">
  <g id="Layer_1-2" data-name="Layer 1">
    <g>
      <path d="M71.26.6c-14.28-3.1-27.19,6.22-29.99,19.64-2.77,13.33,5.92,26.68,19.43,29.61,13.15,2.85,26.33-5.37,29.62-18.28,3.47-13.6-4.47-27.81-19.06-30.98Z"/>
      <g>
        <path d="M112.2,167.96l-96.9.04,6.34-19.72,19.24-64.31c.33-1.12-1.12-3.53-1.62-3.22s-1.87,1.13-2.07,1.79l-19.08,63.27c-1.71,5.67-8.1,6.64-11.99,5.43-5.06-1.57-7.19-6.69-5.61-11.98l19.25-64.38c4.01-13.41,16.25-22.51,30.13-22.47l29.03.09c13.43.04,25.4,9.38,29.19,22.38l18.97,65.1c1.44,4.96-1.36,10-5.22,11.45-5.06,1.9-11-.15-12.68-5.73l-18.81-62.61c-.29-.95-2.26-2.14-2.88-1.89s-1.3,1.82-.98,2.88l18.73,62.36,6.95,21.52Z"/>
        <path d="M86.75,241.1c0,6.37-5.24,10.41-10.34,10.47s-10.44-4.06-10.44-9.96l-.03-73.62,20.8.03v73.07Z"/>
        <path d="M61.93,241.19c0,6.38-5.42,10.4-10.37,10.37-5.97-.04-10.16-4.56-10.14-10.54l.16-73,20.36-.03v73.19Z"/>
      </g>
    </g>
  </g>
</svg>