<?xml version="1.0" encoding="UTF-8"?>
<svg id="Layer_2" data-name="Layer 2" xmlns="http://www.w3.org/2000/svg" viewBox="0 0 104.38 251.57">
  <g id="Layer_1-2" data-name="Layer 1">
    <g>
      <path d="M54.41,237.98l-.08-86.85c0-1.21-1.12-2.68-1.68-2.9-.75-.3-2.64,1.48-2.64,2.29l-.03,87.12c0,8.08-6.99,13.88-14.15,13.64-7.89-.27-13.5-6.39-13.5-14.72l.03-147.72c0-.9-1.04-2.54-1.69-2.88-.81-.43-2.67,1.68-2.67,2.69l.02,59.82c0,5.21-3.91,8.94-8.23,9.26C4.53,158.12,0,154.25,0,148.55l.02-73.78c0-12.42,9.9-22.35,22.29-22.35h59.76c12.39,0,22.29,9.9,22.3,22.35l.02,73.77c0,5.35-3.98,9.1-8.89,9.21-4.03.09-9.08-3.14-9.09-8.47l-.05-60.54c0-.81-1.16-2.54-1.83-2.84-.84-.37-2.55,1.71-2.55,2.92l.08,148.76c0,8.04-6.26,13.77-13.46,13.98-6.86.2-14.17-5.01-14.18-13.58Z"/>
      <path d="M57.5.6c-14.28-3.1-27.19,6.22-29.99,19.64-2.77,13.33,5.92,26.68,19.43,29.61,13.15,2.85,26.33-5.37,29.62-18.28,3.47-13.6-4.47-27.81-19.06-30.98Z"/>
    </g>
  </g>
</svg>