<?xml version="1.0" encoding="UTF-8"?>
<svg id="Layer_2" data-name="Layer 2" xmlns="http://www.w3.org/2000/svg" viewBox="0 0 195.15 255.27">
  <g id="Layer_1-2" data-name="Layer 1">
    <g>
      <path d="M128.1,183.44c.12,13.1,1.45,18.27-8.06,27.67-5.98,4.28-11.91,6.99-19.54,8.81l-8.86,35.34H0s0-117.86,0-117.86c0-5.08,3.69-8.4,8.53-8.45h24c4.84,0,8.32,3.43,8.34,8.28l.15,38.55c.01,3.97,5.52,7.6,9.41,7.6l77.67.06Z"/>
      <g>
        <path d="M143.71,157.19c17.33-6.11,30.25-25.52,35.28-42.68,4.05-13.83,4.63-27.97,2.36-42.16-.78-4.92-5.72-7.51-9.47-7.08-5.37.61-8.81,5.06-7.96,10.5,2.79,17.9-.41,41.23-13.63,54.68,4.78-16.44,5.82-32.15,3.25-48.77-1.53-9.89,3.16-19.6,10.87-25.26,5.61-4.12,12.57-4.16,18.24-.03,4.55,3.32,8.03,8.5,9.31,14.4,5.35,24.5,4.02,49.82-4.33,73.39-2.86,8.07-8.73,13.75-16.26,17.98-3.59,24.16-1.99,49.12,7.91,71.69,3.57,8.13,1.24,16.86-6.85,20.27s-15.76-.97-19.17-9.23c-11.48-27.77-14.24-57.98-9.54-87.7Z"/>
        <path d="M158.04.6c14.28-3.1,27.19,6.22,29.99,19.64,2.77,13.33-5.92,26.68-19.43,29.61s-26.33-5.37-29.62-18.28c-3.47-13.6,4.47-27.81,19.06-30.98Z"/>
        <path d="M147.68,153.43c-3.53,2.22-7.61.39-9.3-2.57-1.44-2.52-.88-6.76,2.14-8.75,22.49-14.77,29.01-40.59,25.56-66.35-.51-3.8,1.4-7.13,4.48-8.02,3.51-1.02,7.87.73,8.59,4.85,5.26,30.18-4.07,63.59-31.47,80.84Z"/>
        <path d="M73.97,213.62c-.29.72-2.45,1.78-3.06,1.46-.77-.41-1.41-2.49-1.07-3.32l3.12-7.75c.27-.66,2.24-1.58,2.97-1.45.91.17,1.51,2.51,1.13,3.46l-3.09,7.61Z"/>
        <path d="M122.56,154.66c-.67.12-2.89-.92-2.72-1.54,1.23-4.47,11.62-5.34,13.11-2.96.46.73-.87,2.8-1.74,2.95l-8.66,1.54Z"/>
        <path d="M106.81,164.61c-.76.58-3.34.49-3.73-.25s.08-2.74.79-3.28l6.62-4.98c.67-.5,3.1-.32,3.51.35s-.07,2.72-.72,3.21l-6.47,4.94Z"/>
        <path d="M92.98,179.02c-.46.54-2.19.97-2.88.79s-1.17-2.9-.71-3.44l5.67-6.79c.46-.55,2.53-.66,3.22-.47s.86,2.62.38,3.19l-5.67,6.72Z"/>
        <path d="M82.36,195.27c-.39.66-2.18,1.63-2.92,1.54s-1.79-2.22-1.42-2.86l4.59-8.08c.42-.74,2.86-1.33,3.47-.77s.82,2.53.37,3.3l-4.08,6.87Z"/>
        <path d="M68.44,232.67c-.17.7-1.97,2.03-2.63,1.92-.87-.15-1.97-2.41-1.75-3.25l2.07-8.07c.2-.78,2.09-2.08,2.81-1.83s1.73,2.17,1.54,2.94l-2.03,8.29Z"/>
        <path d="M65.74,250.73c-.06.63-1.4,2.02-1.86,2.31-.61.38-2.64-1.31-2.57-2.03l.79-8.16c.05-.57,1.47-1.57,2.01-1.75.72-.24,2.47,1.47,2.39,2.21l-.76,7.42Z"/>
      </g>
    </g>
  </g>
</svg>