<?xml version="1.0" encoding="UTF-8"?>
<svg id="Layer_2" data-name="Layer 2" xmlns="http://www.w3.org/2000/svg" viewBox="0 0 306 332">
  <defs>
    <style>
      .cls-1 {
        fill: currentColor;
      }
    </style>
  </defs>
  <g id="Layer_1-2" data-name="Layer 1">
    <g id="Kf8i0x.tif">
      <g>
        <path class="cls-1" d="M0,331.5V0h306v332H0v-.5ZM158.42,43.64c-17.15,3.5-26.78,20.06-23.06,36.07,3.6,15.51,19.11,25.51,34.67,22.39s26.59-18.95,23.45-34.88-18.2-27.02-35.05-23.58ZM196.86,186.68l-66-.02c-1.03-.48-2.67-2.91-2.89-3.98l-10.62-52.58c-1.59-7.86,3.18-14.91,10.51-16.42,6.87-1.41,14.26,2.77,15.84,10.19l4.5,21.23c3.04-14.02,7.08-23.96.79-36.33-3.26-6.43-9.19-9.75-16.54-9.36-10.46.56-20.66,6.96-25.28,17.14-11.89,26.23-14.5,55.12-9.59,83.43,3.18,11.62,12.11,19.57,24.36,19.63l62.57.27,17.86,64.15c2.56,9.2,11.94,13.96,20.8,11.29,8.06-2.43,13.54-11.2,11-20.35l-21.05-75.84c-1.99-7.17-8-12.45-16.27-12.45ZM149.77,168.54l-8.3-41.46c-1.31-6.53-5.35-11.48-12.2-10.64-5.88.72-10.4,6.43-9.06,13l11.07,54.26h71.37c-9.83-12.15-38.62-13.84-52.88-15.16ZM174.34,227.17l-77.67-.06c-3.89,0-9.4-3.62-9.41-7.6l-.15-38.55c-.02-4.85-3.5-8.27-8.34-8.27h-24c-4.84.04-8.53,3.36-8.53,8.44v117.86s91.64,0,91.64,0l8.86-35.34c7.63-1.82,13.56-4.53,19.54-8.81,9.51-9.4,8.18-14.56,8.06-27.67Z"/>
        <path d="M174.34,227.17c.12,13.1,1.45,18.27-8.06,27.67-5.98,4.28-11.91,6.99-19.54,8.81l-8.86,35.34H46.24s0-117.86,0-117.86c0-5.08,3.69-8.4,8.53-8.45h24c4.84,0,8.32,3.43,8.34,8.28l.15,38.55c.01,3.97,5.52,7.6,9.41,7.6l77.67.06Z"/>
        <path d="M196.86,186.68c8.27,0,14.28,5.29,16.27,12.45l21.05,75.84c2.54,9.15-2.94,17.93-11,20.35-8.85,2.67-18.23-2.09-20.8-11.29l-17.86-64.15-62.57-.27c-12.24-.05-21.18-8.01-24.36-19.63-4.91-28.31-2.3-57.21,9.59-83.43,4.62-10.18,14.82-16.59,25.28-17.14,7.35-.39,13.28,2.93,16.54,9.36,6.29,12.38,2.24,22.31-.79,36.33l-4.5-21.23c-1.57-7.41-8.97-11.6-15.84-10.19-7.33,1.51-12.1,8.56-10.51,16.42l10.62,52.58c.22,1.07,1.86,3.51,2.89,3.98l66,.02Z"/>
        <path d="M158.42,43.64c16.85-3.44,31.92,7.71,35.05,23.58s-7.37,31.65-23.45,34.88-31.08-6.88-34.67-22.39c-3.71-16.01,5.91-32.57,23.06-36.07Z"/>
        <path d="M149.77,168.54c14.26,1.32,43.05,3.01,52.88,15.17h-71.37s-11.07-54.27-11.07-54.27c-1.34-6.57,3.18-12.28,9.06-13,6.85-.84,10.89,4.11,12.2,10.64l8.3,41.46Z"/>
      </g>
    </g>
  </g>
</svg>